Coordinates
version=1
nRows=7
nColumns=40
inDegrees=yes

Units are S.I. units (second, meters, Newtons, ...)
Angles are in degrees.

endheader
time	pelvis_tilt	pelvis_list	pelvis_rotation	pelvis_tx	pelvis_ty	pelvis_tz	hip_flexion_r	hip_adduction_r	hip_rotation_r	knee_angle_r	knee_angle_r_beta	ankle_angle_r	subtalar_angle_r	mtp_angle_r	hip_flexion_l	hip_adduction_l	hip_rotation_l	knee_angle_l	knee_angle_l_beta	ankle_angle_l	subtalar_angle_l	mtp_angle_l	lumbar_extension	lumbar_bending	lumbar_rotation	arm_flex_r	arm_add_r	arm_rot_r	elbow_flex_r	pro_sup_r	wrist_flex_r	wrist_dev_r	arm_flex_l	arm_add_l	arm_rot_l	elbow_flex_l	pro_sup_l	wrist_flex_l	wrist_dev_l
      0.28000000	    -18.86373062	     -1.54561838	      7.34710419	     -1.00952438	      0.88505845	     -0.02033589	     48.72170994	    -10.25639224	    -10.56759433	    -90.80915529	     -1.58491875	      1.54379923	    -15.14876006	     14.30270610	     25.80120988	     -6.45882410	     -3.37144492	    -39.21931866	     -0.68450624	     19.06545035	     12.24389245	    -15.72066097	     -2.76177979	     -2.59268705	    -15.73324524	    -28.72236185	    -32.75578787	      3.86148751	     85.09750374	     89.95437384	      0.00000000	      0.00000000	     33.00857665	      6.38914866	    -26.26424262	    134.08558786	     89.95437384	      0.00000000	      0.00000000
      0.29000000	    -18.49972580	     -2.51466177	      5.99083402	     -0.96697029	      0.88883568	     -0.01522066	     51.33852206	     -8.29566286	     -8.99087998	    -87.16647293	     -1.52134195	      1.08536764	    -14.80209797	     14.19823534	     21.31220905	     -3.86856644	     -2.43011788	    -36.80112532	     -0.64230081	     18.29500513	     11.05741373	    -16.04517447	     -2.45409883	     -1.24665554	    -15.66034703	    -30.41049031	    -33.13128969	      2.69902239	     85.75118192	     89.95437384	      0.00000000	      0.00000000	     35.00638985	      8.22373748	    -27.55859745	    134.67027839	     89.95437384	      0.00000000	      0.00000000
      0.30000000	    -17.40388546	     -3.01388056	      4.50049341	     -0.92255179	      0.89477972	     -0.01022676	     52.44142058	     -6.65888928	     -7.50233807	    -82.62254269	     -1.44203541	      0.32136299	    -14.80740516	     14.08701945	     15.60447887	     -1.63102631	     -0.77854444	    -33.59452892	     -0.58633514	     16.06042124	      8.54653378	    -16.73221346	     -2.92631971	     -0.33934293	    -15.40040011	    -31.79874197	    -33.27535112	      1.57351287	     86.32562690	     89.95437384	      0.00000000	      0.00000000	     36.33419940	     10.68776534	    -29.00989006	    135.05505847	     89.95437384	      0.00000000	      0.00000000
      0.31000000	    -16.56214271	     -3.34072091	      2.96079208	     -0.87834018	      0.90071979	     -0.00619695	     53.35630572	     -5.38330350	     -6.26633221	    -77.29790408	     -1.34910293	     -0.81337060	    -14.77396023	     14.36298179	     10.35395938	     -0.04205910	      0.88829727	    -30.52060733	     -0.53268509	     12.56466712	      7.21385651	    -16.43733463	     -3.15884066	      0.43263008	    -14.97704622	    -33.13793641	    -33.43618260	      0.37772945	     86.99599857	     89.95437384	      0.00000000	      0.00000000	     36.99100168	     13.44902819	    -30.64044920	    135.26568555	     89.95437384	      0.00000000	      0.00000000
      0.32000000	    -15.84980417	     -4.21804622	      1.72347407	     -0.83410223	      0.90652469	     -0.00249953	     53.71637679	     -3.97805829	     -6.07295169	    -71.06820453	     -1.24037416	     -2.21377088	    -14.99198331	     15.02394111	      5.78110924	      2.07982809	      3.10629314	    -28.01757920	     -0.48899901	      7.82225511	      4.86584263	    -16.23181712	     -3.21125813	      1.82365850	    -14.74418630	    -34.38626433	    -33.55128490	     -0.84608605	     87.68456063	     89.95437384	      0.00000000	      0.00000000	     37.01725387	     16.40941204	    -32.38112664	    135.03173193	     89.95437384	      0.00000000	      0.00000000
      0.33000000	    -15.25971459	     -5.13962656	      0.69029123	     -0.78949055	      0.91212872	      0.00046479	     53.59104724	     -2.83159840	     -6.39922513	    -64.10821373	     -1.11889941	     -3.80111697	    -14.67700268	     16.24003929	      1.87247651	      4.11629851	      5.81918008	    -26.31662309	     -0.45931172	      1.72502703	      1.99344061	    -15.93681467	     -3.12732285	      3.29274922	    -14.69611506	    -35.40397320	    -33.67250468	     -1.99082343	     88.22861765	     89.95437384	      0.00000000	      0.00000000	     36.37452927	     19.36546690	    -34.09471672	    134.40876080	     89.95437384	      0.00000000	      0.00000000
      0.34000000	    -14.35431178	     -5.79334162	     -0.34307852	     -0.74369917	      0.91808568	      0.00324344	     52.60325413	     -1.96052957	     -6.95830727	    -56.69572369	     -0.98952705	     -5.11830140	    -13.64668119	     17.69440763	     -2.39098143	      5.47852788	      8.54203632	    -24.21665835	     -0.42266042	     -5.11268232	      1.10351260	    -13.99752294	     -3.32449846	      4.45256201	    -14.53877362	    -36.25544558	    -33.56845839	     -3.03291633	     88.68294317	     89.95437384	      0.00000000	      0.00000000	     35.08576113	     22.50719127	    -35.73176710	    133.38342999	     89.95437384	      0.00000000	      0.00000000
